{
    "asset" : {
        "generator" : "Khronos glTF Blender I/O v3.3.32",
        "version" : "2.0"
    },
    "scene" : 0,
    "scenes" : [
        {
            "name" : "Scene",
            "nodes" : [
                0,
                1,
                2
            ]
        }
    ],
    "nodes" : [
        {
            "mesh" : 0,
            "name" : "Cube"
        },
        {
            "mesh" : 1,
            "name" : "Cube.001",
            "translation" : [
                0,
                0.3001299798488617,
                0.7107123732566833
            ]
        },
        {
            "mesh" : 2,
            "name" : "Cylinder",
            "translation" : [
                0,
                0.3134302496910095,
                -0.46482551097869873
            ]
        }
    ],
    "materials" : [
        {
            "doubleSided" : true,
            "name" : "material base",
            "pbrMetallicRoughness" : {
                "baseColorTexture" : {
                    "index" : 0
                },
                "metallicFactor" : 0,
                "roughnessFactor" : 0.5
            }
        },
        {
            "doubleSided" : true,
            "name" : "Material.001",
            "pbrMetallicRoughness" : {
                "baseColorTexture" : {
                    "index" : 1
                },
                "metallicFactor" : 0,
                "roughnessFactor" : 0.5
            }
        },
        {
            "doubleSided" : true,
            "name" : "Material",
            "pbrMetallicRoughness" : {
                "baseColorTexture" : {
                    "index" : 2
                },
                "metallicFactor" : 0,
                "roughnessFactor" : 0.5
            }
        }
    ],
    "meshes" : [
        {
            "name" : "Cube.002",
            "primitives" : [
                {
                    "attributes" : {
                        "POSITION" : 0,
                        "NORMAL" : 1,
                        "TEXCOORD_0" : 2
                    },
                    "indices" : 3,
                    "material" : 0
                }
            ]
        },
        {
            "name" : "Cube.003",
            "primitives" : [
                {
                    "attributes" : {
                        "POSITION" : 4,
                        "NORMAL" : 5,
                        "TEXCOORD_0" : 6
                    },
                    "indices" : 7,
                    "material" : 1
                }
            ]
        },
        {
            "name" : "Cylinder.001",
            "primitives" : [
                {
                    "attributes" : {
                        "POSITION" : 8,
                        "NORMAL" : 9,
                        "TEXCOORD_0" : 10
                    },
                    "indices" : 11,
                    "material" : 2
                }
            ]
        }
    ],
    "textures" : [
        {
            "sampler" : 0,
            "source" : 0
        },
        {
            "sampler" : 0,
            "source" : 1
        },
        {
            "sampler" : 0,
            "source" : 2
        }
    ],
    "images" : [
        {
            "bufferView" : 4,
            "mimeType" : "image/png",
            "name" : "base uv-layout v1"
        },
        {
            "bufferView" : 9,
            "mimeType" : "image/png",
            "name" : "screen uv-layout v2"
        },
        {
            "bufferView" : 14,
            "mimeType" : "image/png",
            "name" : "buttons uv-layout v1"
        }
    ],
    "accessors" : [
        {
            "bufferView" : 0,
            "componentType" : 5126,
            "count" : 56,
            "max" : [
                0.6803232431411743,
                0.308595210313797,
                2.0017974376678467
            ],
            "min" : [
                -0.6803232431411743,
                -0.308595210313797,
                -1.9981385469436646
            ],
            "type" : "VEC3"
        },
        {
            "bufferView" : 1,
            "componentType" : 5126,
            "count" : 56,
            "type" : "VEC3"
        },
        {
            "bufferView" : 2,
            "componentType" : 5126,
            "count" : 56,
            "type" : "VEC2"
        },
        {
            "bufferView" : 3,
            "componentType" : 5123,
            "count" : 180,
            "type" : "SCALAR"
        },
        {
            "bufferView" : 5,
            "componentType" : 5126,
            "count" : 24,
            "max" : [
                0.6142647862434387,
                0.04026925563812256,
                1.1602872610092163
            ],
            "min" : [
                -0.6142647862434387,
                -0.04026925563812256,
                -1.1602872610092163
            ],
            "type" : "VEC3"
        },
        {
            "bufferView" : 6,
            "componentType" : 5126,
            "count" : 24,
            "type" : "VEC3"
        },
        {
            "bufferView" : 7,
            "componentType" : 5126,
            "count" : 24,
            "type" : "VEC2"
        },
        {
            "bufferView" : 8,
            "componentType" : 5123,
            "count" : 36,
            "type" : "SCALAR"
        },
        {
            "bufferView" : 10,
            "componentType" : 5126,
            "count" : 114,
            "max" : [
                0.6187714338302612,
                0.048262711614370346,
                0.013597181998193264
            ],
            "min" : [
                -0.6187714338302612,
                -0.002943276194855571,
                -0.3019360601902008
            ],
            "type" : "VEC3"
        },
        {
            "bufferView" : 11,
            "componentType" : 5126,
            "count" : 114,
            "type" : "VEC3"
        },
        {
            "bufferView" : 12,
            "componentType" : 5126,
            "count" : 114,
            "type" : "VEC2"
        },
        {
            "bufferView" : 13,
            "componentType" : 5123,
            "count" : 216,
            "type" : "SCALAR"
        }
    ],
    "bufferViews" : [
        {
            "buffer" : 0,
            "byteLength" : 672,
            "byteOffset" : 0,
            "target" : 34962
        },
        {
            "buffer" : 0,
            "byteLength" : 672,
            "byteOffset" : 672,
            "target" : 34962
        },
        {
            "buffer" : 0,
            "byteLength" : 448,
            "byteOffset" : 1344,
            "target" : 34962
        },
        {
            "buffer" : 0,
            "byteLength" : 360,
            "byteOffset" : 1792,
            "target" : 34963
        },
        {
            "buffer" : 0,
            "byteLength" : 263983,
            "byteOffset" : 2152
        },
        {
            "buffer" : 0,
            "byteLength" : 288,
            "byteOffset" : 266136,
            "target" : 34962
        },
        {
            "buffer" : 0,
            "byteLength" : 288,
            "byteOffset" : 266424,
            "target" : 34962
        },
        {
            "buffer" : 0,
            "byteLength" : 192,
            "byteOffset" : 266712,
            "target" : 34962
        },
        {
            "buffer" : 0,
            "byteLength" : 72,
            "byteOffset" : 266904,
            "target" : 34963
        },
        {
            "buffer" : 0,
            "byteLength" : 314725,
            "byteOffset" : 266976
        },
        {
            "buffer" : 0,
            "byteLength" : 1368,
            "byteOffset" : 581704,
            "target" : 34962
        },
        {
            "buffer" : 0,
            "byteLength" : 1368,
            "byteOffset" : 583072,
            "target" : 34962
        },
        {
            "buffer" : 0,
            "byteLength" : 912,
            "byteOffset" : 584440,
            "target" : 34962
        },
        {
            "buffer" : 0,
            "byteLength" : 432,
            "byteOffset" : 585352,
            "target" : 34963
        },
        {
            "buffer" : 0,
            "byteLength" : 134350,
            "byteOffset" : 585784
        }
    ],
    "samplers" : [
        {
            "magFilter" : 9729,
            "minFilter" : 9987
        }
    ],
    "buffers" : [
        {
            "byteLength" : 720136,
            "uri" : "data:application/octet-stream;base64,"
        }
    ]
}
